<?xml version="1.0" encoding="UTF-8" standalone="no"?>
<!DOCTYPE svg PUBLIC "-//W3C//DTD SVG 1.1//EN"
 "http://www.w3.org/Graphics/SVG/1.1/DTD/svg11.dtd">
<!-- Generated by graphviz version 2.40.1 (20161225.0304)
 -->
<!-- Title: Characters Pages: 1 -->
<svg width="715pt" height="742pt"
 viewBox="0.00 0.00 715.00 742.00" xmlns="http://www.w3.org/2000/svg" xmlns:xlink="http://www.w3.org/1999/xlink">
<g id="graph0" class="graph" transform="scale(1 1) rotate(0) translate(4 738)">
<title>Characters</title>
<polygon fill="#ffffff" stroke="transparent" points="-4,4 -4,-738 711,-738 711,4 -4,4"/>
<!-- Characters -->
<g id="node1" class="node">
<title>Characters</title>
<polygon fill="#efefef" stroke="transparent" points="46,-652.5 46,-687.5 436,-687.5 436,-652.5 46,-652.5"/>
<polygon fill="none" stroke="#000000" points="46,-652.5 46,-687.5 436,-687.5 436,-652.5 46,-652.5"/>
<text text-anchor="start" x="146.04" y="-665.3" font-family="Arial Bold" font-size="18.00" fill="#000000">Characters</text>
<text text-anchor="start" x="234.0456" y="-665.3" font-family="Arial" font-size="14.00" fill="#000000"> </text>
<text text-anchor="start" x="237.9362" y="-665.3" font-family="Arial" font-size="14.00" fill="#666666">[BASIC TABLE]</text>
<polygon fill="none" stroke="#000000" points="46,-622.5 46,-652.5 436,-652.5 436,-622.5 46,-622.5"/>
<text text-anchor="start" x="53" y="-633.9" font-family="Arial" font-size="14.00" fill="#000000">Id </text>
<text text-anchor="start" x="68.5638" y="-633.9" font-family="Arial" font-size="14.00" fill="#666666">[INT64]</text>
<polygon fill="none" stroke="#000000" points="46,-592.5 46,-622.5 436,-622.5 436,-592.5 46,-592.5"/>
<text text-anchor="start" x="53" y="-603.9" font-family="Arial" font-size="14.00" fill="#000000">UserId </text>
<text text-anchor="start" x="98.1136" y="-603.9" font-family="Arial" font-size="14.00" fill="#666666">[INT64]</text>
<polygon fill="none" stroke="#000000" points="46,-562.5 46,-592.5 436,-592.5 436,-562.5 46,-562.5"/>
<text text-anchor="start" x="53" y="-573.9" font-family="Arial" font-size="14.00" fill="#000000">CharacterId </text>
<text text-anchor="start" x="130.0126" y="-573.9" font-family="Arial" font-size="14.00" fill="#666666">[INT64]</text>
<polygon fill="none" stroke="#000000" points="46,-532.5 46,-562.5 436,-562.5 436,-532.5 46,-532.5"/>
<text text-anchor="start" x="53" y="-543.9" font-family="Arial" font-size="14.00" fill="#000000">Name </text>
<text text-anchor="start" x="94.223" y="-543.9" font-family="Arial" font-size="14.00" fill="#666666">[STRING(16)]</text>
<polygon fill="none" stroke="#000000" points="46,-502.5 46,-532.5 436,-532.5 436,-502.5 46,-502.5"/>
<text text-anchor="start" x="53" y="-513.9" font-family="Arial" font-size="14.00" fill="#000000">Level </text>
<text text-anchor="start" x="90.345" y="-513.9" font-family="Arial" font-size="14.00" fill="#666666">[INT64]</text>
<polygon fill="none" stroke="#000000" points="46,-472.5 46,-502.5 436,-502.5 436,-472.5 46,-472.5"/>
<text text-anchor="start" x="53" y="-483.9" font-family="Arial" font-size="14.00" fill="#000000">Experience </text>
<text text-anchor="start" x="126.9074" y="-483.9" font-family="Arial" font-size="14.00" fill="#666666">[INT64]</text>
<polygon fill="none" stroke="#000000" points="46,-442.5 46,-472.5 436,-472.5 436,-442.5 46,-442.5"/>
<text text-anchor="start" x="53" y="-453.9" font-family="Arial" font-size="14.00" fill="#000000">Strength </text>
<text text-anchor="start" x="109.7994" y="-453.9" font-family="Arial" font-size="14.00" fill="#666666">[INT64]</text>
<polygon fill="none" stroke="#000000" points="46,-412.5 46,-442.5 436,-442.5 436,-412.5 46,-412.5"/>
<text text-anchor="start" x="53" y="-423.9" font-family="Arial" font-size="14.00" fill="#000000">CreatedAt </text>
<text text-anchor="start" x="119.906" y="-423.9" font-family="Arial" font-size="14.00" fill="#666666">[TIMESTAMP (allow_commit_timestamp=TRUE)]</text>
<polygon fill="none" stroke="#000000" points="46,-382.5 46,-412.5 436,-412.5 436,-382.5 46,-382.5"/>
<text text-anchor="start" x="52.9653" y="-393.9" font-family="Arial" font-size="14.00" fill="#000000">UpdatedAt </text>
<text text-anchor="start" x="122.9933" y="-393.9" font-family="Arial" font-size="14.00" fill="#666666">[TIMESTAMP (allow_commit_timestamp=TRUE)]</text>
<polygon fill="none" stroke="#000000" stroke-width="3" points="44.5,-381.5 44.5,-689.5 437.5,-689.5 437.5,-381.5 44.5,-381.5"/>
</g>
<!-- Users -->
<g id="node2" class="node">
<title>Users</title>
<polygon fill="#efefef" stroke="transparent" points="46,-222.5 46,-257.5 436,-257.5 436,-222.5 46,-222.5"/>
<polygon fill="none" stroke="#000000" points="46,-222.5 46,-257.5 436,-257.5 436,-222.5 46,-222.5"/>
<text text-anchor="start" x="166.5465" y="-235.3" font-family="Arial Bold" font-size="18.00" fill="#000000">Users</text>
<text text-anchor="start" x="213.5391" y="-235.3" font-family="Arial" font-size="14.00" fill="#000000"> </text>
<text text-anchor="start" x="217.4297" y="-235.3" font-family="Arial" font-size="14.00" fill="#666666">[BASIC TABLE]</text>
<polygon fill="none" stroke="#000000" points="46,-192.5 46,-222.5 436,-222.5 436,-192.5 46,-192.5"/>
<text text-anchor="start" x="53" y="-203.9" font-family="Arial" font-size="14.00" fill="#000000">UserId </text>
<text text-anchor="start" x="98.1136" y="-203.9" font-family="Arial" font-size="14.00" fill="#666666">[INT64]</text>
<polygon fill="none" stroke="#000000" points="46,-162.5 46,-192.5 436,-192.5 436,-162.5 46,-162.5"/>
<text text-anchor="start" x="53" y="-173.9" font-family="Arial" font-size="14.00" fill="#000000">Name </text>
<text text-anchor="start" x="94.223" y="-173.9" font-family="Arial" font-size="14.00" fill="#666666">[STRING(32)]</text>
<polygon fill="none" stroke="#000000" points="46,-132.5 46,-162.5 436,-162.5 436,-132.5 46,-132.5"/>
<text text-anchor="start" x="53" y="-143.9" font-family="Arial" font-size="14.00" fill="#000000">Mail </text>
<text text-anchor="start" x="82.547" y="-143.9" font-family="Arial" font-size="14.00" fill="#666666">[STRING(64)]</text>
<polygon fill="none" stroke="#000000" points="46,-102.5 46,-132.5 436,-132.5 436,-102.5 46,-102.5"/>
<text text-anchor="start" x="53" y="-113.9" font-family="Arial" font-size="14.00" fill="#000000">Password </text>
<text text-anchor="start" x="118.3422" y="-113.9" font-family="Arial" font-size="14.00" fill="#666666">[STRING(64)]</text>
<polygon fill="none" stroke="#000000" points="46,-72.5 46,-102.5 436,-102.5 436,-72.5 46,-72.5"/>
<text text-anchor="start" x="53" y="-83.9" font-family="Arial" font-size="14.00" fill="#000000">CreatedAt </text>
<text text-anchor="start" x="119.906" y="-83.9" font-family="Arial" font-size="14.00" fill="#666666">[TIMESTAMP (allow_commit_timestamp=TRUE)]</text>
<polygon fill="none" stroke="#000000" points="46,-42.5 46,-72.5 436,-72.5 436,-42.5 46,-42.5"/>
<text text-anchor="start" x="52.9653" y="-53.9" font-family="Arial" font-size="14.00" fill="#000000">UpdatedAt </text>
<text text-anchor="start" x="122.9933" y="-53.9" font-family="Arial" font-size="14.00" fill="#666666">[TIMESTAMP (allow_commit_timestamp=TRUE)]</text>
</g>
<!-- Characters&#45;&gt;Users -->
<g id="edge1" class="edge">
<title>Characters:UserId&#45;&gt;Users:UserId</title>
<path fill="none" stroke="#000000" d="M446.0098,-605.7166C524.7533,-576.8604 521.4167,-207.5 436,-207.5"/>
<polygon fill="#000000" stroke="#000000" points="445.845,-605.7459 435.2107,-603.0698 440.9225,-606.623 436,-607.5 436,-607.5 436,-607.5 440.9225,-606.623 436.7893,-611.9302 445.845,-605.7459 445.845,-605.7459"/>
<text text-anchor="start" x="443.106" y="-617.5" font-family="Arial" font-size="10.00" fill="#000000">INTERLEAVE IN PARENT Users ON DELETE CASCADE</text>
</g>
</g>
</svg>
