<?xml version="1.0" encoding="UTF-8" standalone="no"?>
<!DOCTYPE svg PUBLIC "-//W3C//DTD SVG 1.1//EN"
 "http://www.w3.org/Graphics/SVG/1.1/DTD/svg11.dtd">
<!-- Generated by graphviz version 2.40.1 (20161225.0304)
 -->
<!-- Title: projects/kazu0716&#45;sandbox/instances/spanner&#45;demo/databases/sample&#45;game Pages: 1 -->
<svg width="1966pt" height="736pt"
 viewBox="0.00 0.00 1966.00 736.00" xmlns="http://www.w3.org/2000/svg" xmlns:xlink="http://www.w3.org/1999/xlink">
<g id="graph0" class="graph" transform="scale(1 1) rotate(0) translate(4 732)">
<title>projects/kazu0716&#45;sandbox/instances/spanner&#45;demo/databases/sample&#45;game</title>
<polygon fill="#ffffff" stroke="transparent" points="-4,4 -4,-732 1962,-732 1962,4 -4,4"/>
<!-- BattleHistory -->
<g id="node1" class="node">
<title>BattleHistory</title>
<polygon fill="#efefef" stroke="transparent" points="43,-634.5 43,-669.5 433,-669.5 433,-634.5 43,-634.5"/>
<polygon fill="none" stroke="#000000" points="43,-634.5 43,-669.5 433,-669.5 433,-634.5 43,-634.5"/>
<text text-anchor="start" x="136.0407" y="-647.3" font-family="Arial Bold" font-size="18.00" fill="#000000">BattleHistory</text>
<text text-anchor="start" x="238.0449" y="-647.3" font-family="Arial" font-size="14.00" fill="#000000"> </text>
<text text-anchor="start" x="241.9355" y="-647.3" font-family="Arial" font-size="14.00" fill="#666666">[BASIC TABLE]</text>
<polygon fill="none" stroke="#000000" points="43,-604.5 43,-634.5 433,-634.5 433,-604.5 43,-604.5"/>
<text text-anchor="start" x="50" y="-615.9" font-family="Arial" font-size="14.00" fill="#000000">BattleHistoryId </text>
<text text-anchor="start" x="144.9004" y="-615.9" font-family="Arial" font-size="14.00" fill="#666666">[INT64]</text>
<polygon fill="none" stroke="#000000" points="43,-574.5 43,-604.5 433,-604.5 433,-574.5 43,-574.5"/>
<text text-anchor="start" x="50" y="-585.9" font-family="Arial" font-size="14.00" fill="#000000">UserId </text>
<text text-anchor="start" x="95.1136" y="-585.9" font-family="Arial" font-size="14.00" fill="#666666">[INT64]</text>
<polygon fill="none" stroke="#000000" points="43,-544.5 43,-574.5 433,-574.5 433,-544.5 43,-544.5"/>
<text text-anchor="start" x="50" y="-555.9" font-family="Arial" font-size="14.00" fill="#000000">Id </text>
<text text-anchor="start" x="65.5638" y="-555.9" font-family="Arial" font-size="14.00" fill="#666666">[INT64]</text>
<polygon fill="none" stroke="#000000" points="43,-514.5 43,-544.5 433,-544.5 433,-514.5 43,-514.5"/>
<text text-anchor="start" x="50" y="-525.9" font-family="Arial" font-size="14.00" fill="#000000">OpponentId </text>
<text text-anchor="start" x="127.0406" y="-525.9" font-family="Arial" font-size="14.00" fill="#666666">[INT64]</text>
<polygon fill="none" stroke="#000000" points="43,-484.5 43,-514.5 433,-514.5 433,-484.5 43,-484.5"/>
<text text-anchor="start" x="50" y="-495.9" font-family="Arial" font-size="14.00" fill="#000000">Result </text>
<text text-anchor="start" x="93.5596" y="-495.9" font-family="Arial" font-size="14.00" fill="#666666">[BOOL]</text>
<polygon fill="none" stroke="#000000" points="43,-454.5 43,-484.5 433,-484.5 433,-454.5 43,-454.5"/>
<text text-anchor="start" x="50" y="-465.9" font-family="Arial" font-size="14.00" fill="#000000">EntryShardId </text>
<text text-anchor="start" x="135.5792" y="-465.9" font-family="Arial" font-size="14.00" fill="#666666">[INT64]</text>
<polygon fill="none" stroke="#000000" points="43,-424.5 43,-454.5 433,-454.5 433,-424.5 43,-424.5"/>
<text text-anchor="start" x="50" y="-435.9" font-family="Arial" font-size="14.00" fill="#000000">CreatedAt </text>
<text text-anchor="start" x="116.906" y="-435.9" font-family="Arial" font-size="14.00" fill="#666666">[TIMESTAMP (allow_commit_timestamp=TRUE)]</text>
<polygon fill="none" stroke="#000000" points="43,-394.5 43,-424.5 433,-424.5 433,-394.5 43,-394.5"/>
<text text-anchor="start" x="49.9653" y="-405.9" font-family="Arial" font-size="14.00" fill="#000000">UpdatedAt </text>
<text text-anchor="start" x="119.9933" y="-405.9" font-family="Arial" font-size="14.00" fill="#666666">[TIMESTAMP (allow_commit_timestamp=TRUE)]</text>
</g>
<!-- Users -->
<g id="node5" class="node">
<title>Users</title>
<polygon fill="#efefef" stroke="transparent" points="290,-222.5 290,-257.5 680,-257.5 680,-222.5 290,-222.5"/>
<polygon fill="none" stroke="#000000" points="290,-222.5 290,-257.5 680,-257.5 680,-222.5 290,-222.5"/>
<text text-anchor="start" x="410.5465" y="-235.3" font-family="Arial Bold" font-size="18.00" fill="#000000">Users</text>
<text text-anchor="start" x="457.5391" y="-235.3" font-family="Arial" font-size="14.00" fill="#000000"> </text>
<text text-anchor="start" x="461.4297" y="-235.3" font-family="Arial" font-size="14.00" fill="#666666">[BASIC TABLE]</text>
<polygon fill="none" stroke="#000000" points="290,-192.5 290,-222.5 680,-222.5 680,-192.5 290,-192.5"/>
<text text-anchor="start" x="297" y="-203.9" font-family="Arial" font-size="14.00" fill="#000000">UserId </text>
<text text-anchor="start" x="342.1136" y="-203.9" font-family="Arial" font-size="14.00" fill="#666666">[INT64]</text>
<polygon fill="none" stroke="#000000" points="290,-162.5 290,-192.5 680,-192.5 680,-162.5 290,-162.5"/>
<text text-anchor="start" x="297" y="-173.9" font-family="Arial" font-size="14.00" fill="#000000">Name </text>
<text text-anchor="start" x="338.223" y="-173.9" font-family="Arial" font-size="14.00" fill="#666666">[STRING(32)]</text>
<polygon fill="none" stroke="#000000" points="290,-132.5 290,-162.5 680,-162.5 680,-132.5 290,-132.5"/>
<text text-anchor="start" x="297" y="-143.9" font-family="Arial" font-size="14.00" fill="#000000">Mail </text>
<text text-anchor="start" x="326.547" y="-143.9" font-family="Arial" font-size="14.00" fill="#666666">[STRING(64)]</text>
<polygon fill="none" stroke="#000000" points="290,-102.5 290,-132.5 680,-132.5 680,-102.5 290,-102.5"/>
<text text-anchor="start" x="297" y="-113.9" font-family="Arial" font-size="14.00" fill="#000000">Password </text>
<text text-anchor="start" x="362.3422" y="-113.9" font-family="Arial" font-size="14.00" fill="#666666">[STRING(64)]</text>
<polygon fill="none" stroke="#000000" points="290,-72.5 290,-102.5 680,-102.5 680,-72.5 290,-72.5"/>
<text text-anchor="start" x="297" y="-83.9" font-family="Arial" font-size="14.00" fill="#000000">CreatedAt </text>
<text text-anchor="start" x="363.906" y="-83.9" font-family="Arial" font-size="14.00" fill="#666666">[TIMESTAMP (allow_commit_timestamp=TRUE)]</text>
<polygon fill="none" stroke="#000000" points="290,-42.5 290,-72.5 680,-72.5 680,-42.5 290,-42.5"/>
<text text-anchor="start" x="296.9653" y="-53.9" font-family="Arial" font-size="14.00" fill="#000000">UpdatedAt </text>
<text text-anchor="start" x="366.9933" y="-53.9" font-family="Arial" font-size="14.00" fill="#666666">[TIMESTAMP (allow_commit_timestamp=TRUE)]</text>
</g>
<!-- BattleHistory&#45;&gt;Users -->
<g id="edge1" class="edge">
<title>BattleHistory:UserId&#45;&gt;Users:UserId</title>
<path fill="none" stroke="#000000" d="M442.7916,-586.8856C482.6824,-563.6333 461.3332,-392.186 433,-352 394.118,-296.8522 328.882,-356.1478 290,-301 266.0545,-267.0371 248.4444,-207.5 290,-207.5"/>
<polygon fill="#000000" stroke="#000000" points="442.6615,-586.9202 431.8391,-585.1523 437.8308,-588.2101 433,-589.5 433,-589.5 433,-589.5 437.8308,-588.2101 434.1609,-593.8477 442.6615,-586.9202 442.6615,-586.9202"/>
<text text-anchor="start" x="440.106" y="-599.5" font-family="Arial" font-size="10.00" fill="#000000">INTERLEAVE IN PARENT Users ON DELETE CASCADE</text>
</g>
<!-- CharacterMasters -->
<g id="node2" class="node">
<title>CharacterMasters</title>
<polygon fill="#efefef" stroke="transparent" points="1031,-589.5 1031,-624.5 1421,-624.5 1421,-589.5 1031,-589.5"/>
<polygon fill="none" stroke="#000000" points="1031,-589.5 1031,-624.5 1421,-624.5 1421,-589.5 1031,-589.5"/>
<text text-anchor="start" x="1103.5405" y="-602.3" font-family="Arial Bold" font-size="18.00" fill="#000000">CharacterMasters</text>
<text text-anchor="start" x="1246.5451" y="-602.3" font-family="Arial" font-size="14.00" fill="#000000"> </text>
<text text-anchor="start" x="1250.4357" y="-602.3" font-family="Arial" font-size="14.00" fill="#666666">[BASIC TABLE]</text>
<polygon fill="none" stroke="#000000" points="1031,-559.5 1031,-589.5 1421,-589.5 1421,-559.5 1031,-559.5"/>
<text text-anchor="start" x="1038" y="-570.9" font-family="Arial" font-size="14.00" fill="#000000">CharacterId </text>
<text text-anchor="start" x="1115.0126" y="-570.9" font-family="Arial" font-size="14.00" fill="#666666">[INT64]</text>
<polygon fill="none" stroke="#000000" points="1031,-529.5 1031,-559.5 1421,-559.5 1421,-529.5 1031,-529.5"/>
<text text-anchor="start" x="1038" y="-540.9" font-family="Arial" font-size="14.00" fill="#000000">Name </text>
<text text-anchor="start" x="1079.223" y="-540.9" font-family="Arial" font-size="14.00" fill="#666666">[STRING(16)]</text>
<polygon fill="none" stroke="#000000" points="1031,-499.5 1031,-529.5 1421,-529.5 1421,-499.5 1031,-499.5"/>
<text text-anchor="start" x="1038" y="-510.9" font-family="Arial" font-size="14.00" fill="#000000">Kind </text>
<text text-anchor="start" x="1069.899" y="-510.9" font-family="Arial" font-size="14.00" fill="#666666">[STRING(16)]</text>
<polygon fill="none" stroke="#000000" points="1031,-469.5 1031,-499.5 1421,-499.5 1421,-469.5 1031,-469.5"/>
<text text-anchor="start" x="1038" y="-480.9" font-family="Arial" font-size="14.00" fill="#000000">CreatedAt </text>
<text text-anchor="start" x="1104.906" y="-480.9" font-family="Arial" font-size="14.00" fill="#666666">[TIMESTAMP (allow_commit_timestamp=TRUE)]</text>
<polygon fill="none" stroke="#000000" points="1031,-439.5 1031,-469.5 1421,-469.5 1421,-439.5 1031,-439.5"/>
<text text-anchor="start" x="1037.9653" y="-450.9" font-family="Arial" font-size="14.00" fill="#000000">UpdatedAt </text>
<text text-anchor="start" x="1107.9933" y="-450.9" font-family="Arial" font-size="14.00" fill="#666666">[TIMESTAMP (allow_commit_timestamp=TRUE)]</text>
</g>
<!-- Characters -->
<g id="node3" class="node">
<title>Characters</title>
<polygon fill="#efefef" stroke="transparent" points="537,-649.5 537,-684.5 927,-684.5 927,-649.5 537,-649.5"/>
<polygon fill="none" stroke="#000000" points="537,-649.5 537,-684.5 927,-684.5 927,-649.5 537,-649.5"/>
<text text-anchor="start" x="637.04" y="-662.3" font-family="Arial Bold" font-size="18.00" fill="#000000">Characters</text>
<text text-anchor="start" x="725.0456" y="-662.3" font-family="Arial" font-size="14.00" fill="#000000"> </text>
<text text-anchor="start" x="728.9362" y="-662.3" font-family="Arial" font-size="14.00" fill="#666666">[BASIC TABLE]</text>
<polygon fill="none" stroke="#000000" points="537,-619.5 537,-649.5 927,-649.5 927,-619.5 537,-619.5"/>
<text text-anchor="start" x="544" y="-630.9" font-family="Arial" font-size="14.00" fill="#000000">Id </text>
<text text-anchor="start" x="559.5638" y="-630.9" font-family="Arial" font-size="14.00" fill="#666666">[INT64]</text>
<polygon fill="none" stroke="#000000" points="537,-589.5 537,-619.5 927,-619.5 927,-589.5 537,-589.5"/>
<text text-anchor="start" x="544" y="-600.9" font-family="Arial" font-size="14.00" fill="#000000">UserId </text>
<text text-anchor="start" x="589.1136" y="-600.9" font-family="Arial" font-size="14.00" fill="#666666">[INT64]</text>
<polygon fill="none" stroke="#000000" points="537,-559.5 537,-589.5 927,-589.5 927,-559.5 537,-559.5"/>
<text text-anchor="start" x="544" y="-570.9" font-family="Arial" font-size="14.00" fill="#000000">CharacterId </text>
<text text-anchor="start" x="621.0126" y="-570.9" font-family="Arial" font-size="14.00" fill="#666666">[INT64]</text>
<polygon fill="none" stroke="#000000" points="537,-529.5 537,-559.5 927,-559.5 927,-529.5 537,-529.5"/>
<text text-anchor="start" x="544" y="-540.9" font-family="Arial" font-size="14.00" fill="#000000">Name </text>
<text text-anchor="start" x="585.223" y="-540.9" font-family="Arial" font-size="14.00" fill="#666666">[STRING(16)]</text>
<polygon fill="none" stroke="#000000" points="537,-499.5 537,-529.5 927,-529.5 927,-499.5 537,-499.5"/>
<text text-anchor="start" x="544" y="-510.9" font-family="Arial" font-size="14.00" fill="#000000">Level </text>
<text text-anchor="start" x="581.345" y="-510.9" font-family="Arial" font-size="14.00" fill="#666666">[INT64]</text>
<polygon fill="none" stroke="#000000" points="537,-469.5 537,-499.5 927,-499.5 927,-469.5 537,-469.5"/>
<text text-anchor="start" x="544" y="-480.9" font-family="Arial" font-size="14.00" fill="#000000">Experience </text>
<text text-anchor="start" x="617.9074" y="-480.9" font-family="Arial" font-size="14.00" fill="#666666">[INT64]</text>
<polygon fill="none" stroke="#000000" points="537,-439.5 537,-469.5 927,-469.5 927,-439.5 537,-439.5"/>
<text text-anchor="start" x="544" y="-450.9" font-family="Arial" font-size="14.00" fill="#000000">Strength </text>
<text text-anchor="start" x="600.7994" y="-450.9" font-family="Arial" font-size="14.00" fill="#666666">[INT64]</text>
<polygon fill="none" stroke="#000000" points="537,-409.5 537,-439.5 927,-439.5 927,-409.5 537,-409.5"/>
<text text-anchor="start" x="544" y="-420.9" font-family="Arial" font-size="14.00" fill="#000000">CreatedAt </text>
<text text-anchor="start" x="610.906" y="-420.9" font-family="Arial" font-size="14.00" fill="#666666">[TIMESTAMP (allow_commit_timestamp=TRUE)]</text>
<polygon fill="none" stroke="#000000" points="537,-379.5 537,-409.5 927,-409.5 927,-379.5 537,-379.5"/>
<text text-anchor="start" x="543.9653" y="-390.9" font-family="Arial" font-size="14.00" fill="#000000">UpdatedAt </text>
<text text-anchor="start" x="613.9933" y="-390.9" font-family="Arial" font-size="14.00" fill="#666666">[TIMESTAMP (allow_commit_timestamp=TRUE)]</text>
</g>
<!-- Characters&#45;&gt;Users -->
<g id="edge2" class="edge">
<title>Characters:UserId&#45;&gt;Users:UserId</title>
<path fill="none" stroke="#000000" d="M527.0928,-602.1613C480.3786,-578.4217 502.6683,-381.0458 537,-337 577.2908,-285.309 639.7092,-352.691 680,-301 705.5469,-268.2247 721.5556,-207.5 680,-207.5"/>
<polygon fill="#000000" stroke="#000000" points="527.2675,-602.2024 535.9661,-608.8796 532.1338,-603.3512 537,-604.5 537,-604.5 537,-604.5 532.1338,-603.3512 538.0339,-600.1204 527.2675,-602.2024 527.2675,-602.2024"/>
<text text-anchor="start" x="544.106" y="-614.5" font-family="Arial" font-size="10.00" fill="#000000">INTERLEAVE IN PARENT Users ON DELETE CASCADE</text>
</g>
<!-- OpponentMasters -->
<g id="node4" class="node">
<title>OpponentMasters</title>
<polygon fill="#efefef" stroke="transparent" points="1525,-619.5 1525,-654.5 1915,-654.5 1915,-619.5 1525,-619.5"/>
<polygon fill="none" stroke="#000000" points="1525,-619.5 1525,-654.5 1915,-654.5 1915,-619.5 1525,-619.5"/>
<text text-anchor="start" x="1597.5225" y="-632.3" font-family="Arial Bold" font-size="18.00" fill="#000000">OpponentMasters</text>
<text text-anchor="start" x="1740.5631" y="-632.3" font-family="Arial" font-size="14.00" fill="#000000"> </text>
<text text-anchor="start" x="1744.4537" y="-632.3" font-family="Arial" font-size="14.00" fill="#666666">[BASIC TABLE]</text>
<polygon fill="none" stroke="#000000" points="1525,-589.5 1525,-619.5 1915,-619.5 1915,-589.5 1525,-589.5"/>
<text text-anchor="start" x="1532" y="-600.9" font-family="Arial" font-size="14.00" fill="#000000">OpponentId </text>
<text text-anchor="start" x="1609.0406" y="-600.9" font-family="Arial" font-size="14.00" fill="#666666">[INT64]</text>
<polygon fill="none" stroke="#000000" points="1525,-559.5 1525,-589.5 1915,-589.5 1915,-559.5 1525,-559.5"/>
<text text-anchor="start" x="1532" y="-570.9" font-family="Arial" font-size="14.00" fill="#000000">Name </text>
<text text-anchor="start" x="1573.223" y="-570.9" font-family="Arial" font-size="14.00" fill="#666666">[STRING(32)]</text>
<polygon fill="none" stroke="#000000" points="1525,-529.5 1525,-559.5 1915,-559.5 1915,-529.5 1525,-529.5"/>
<text text-anchor="start" x="1532" y="-540.9" font-family="Arial" font-size="14.00" fill="#000000">Kind </text>
<text text-anchor="start" x="1563.899" y="-540.9" font-family="Arial" font-size="14.00" fill="#666666">[STRING(16)]</text>
<polygon fill="none" stroke="#000000" points="1525,-499.5 1525,-529.5 1915,-529.5 1915,-499.5 1525,-499.5"/>
<text text-anchor="start" x="1532" y="-510.9" font-family="Arial" font-size="14.00" fill="#000000">Strength </text>
<text text-anchor="start" x="1588.7994" y="-510.9" font-family="Arial" font-size="14.00" fill="#666666">[INT64]</text>
<polygon fill="none" stroke="#000000" points="1525,-469.5 1525,-499.5 1915,-499.5 1915,-469.5 1525,-469.5"/>
<text text-anchor="start" x="1532" y="-480.9" font-family="Arial" font-size="14.00" fill="#000000">Experience </text>
<text text-anchor="start" x="1605.9074" y="-480.9" font-family="Arial" font-size="14.00" fill="#666666">[INT64]</text>
<polygon fill="none" stroke="#000000" points="1525,-439.5 1525,-469.5 1915,-469.5 1915,-439.5 1525,-439.5"/>
<text text-anchor="start" x="1532" y="-450.9" font-family="Arial" font-size="14.00" fill="#000000">CreatedAt </text>
<text text-anchor="start" x="1598.906" y="-450.9" font-family="Arial" font-size="14.00" fill="#666666">[TIMESTAMP (allow_commit_timestamp=TRUE)]</text>
<polygon fill="none" stroke="#000000" points="1525,-409.5 1525,-439.5 1915,-439.5 1915,-409.5 1525,-409.5"/>
<text text-anchor="start" x="1531.9653" y="-420.9" font-family="Arial" font-size="14.00" fill="#000000">UpdatedAt </text>
<text text-anchor="start" x="1601.9933" y="-420.9" font-family="Arial" font-size="14.00" fill="#666666">[TIMESTAMP (allow_commit_timestamp=TRUE)]</text>
</g>
</g>
</svg>
