<?xml version="1.0" encoding="UTF-8" standalone="no"?>
<!DOCTYPE svg PUBLIC "-//W3C//DTD SVG 1.1//EN"
 "http://www.w3.org/Graphics/SVG/1.1/DTD/svg11.dtd">
<!-- Generated by graphviz version 2.40.1 (20161225.0304)
 -->
<!-- Title: Users Pages: 1 -->
<svg width="978pt" height="742pt"
 viewBox="0.00 0.00 978.00 742.00" xmlns="http://www.w3.org/2000/svg" xmlns:xlink="http://www.w3.org/1999/xlink">
<g id="graph0" class="graph" transform="scale(1 1) rotate(0) translate(4 738)">
<title>Users</title>
<polygon fill="#ffffff" stroke="transparent" points="-4,4 -4,-738 974,-738 974,4 -4,4"/>
<!-- Users -->
<g id="node1" class="node">
<title>Users</title>
<polygon fill="#efefef" stroke="transparent" points="290,-225.5 290,-260.5 680,-260.5 680,-225.5 290,-225.5"/>
<polygon fill="none" stroke="#000000" points="290,-225.5 290,-260.5 680,-260.5 680,-225.5 290,-225.5"/>
<text text-anchor="start" x="410.5465" y="-238.3" font-family="Arial Bold" font-size="18.00" fill="#000000">Users</text>
<text text-anchor="start" x="457.5391" y="-238.3" font-family="Arial" font-size="14.00" fill="#000000"> </text>
<text text-anchor="start" x="461.4297" y="-238.3" font-family="Arial" font-size="14.00" fill="#666666">[BASIC TABLE]</text>
<polygon fill="none" stroke="#000000" points="290,-195.5 290,-225.5 680,-225.5 680,-195.5 290,-195.5"/>
<text text-anchor="start" x="297" y="-206.9" font-family="Arial" font-size="14.00" fill="#000000">UserId </text>
<text text-anchor="start" x="342.1136" y="-206.9" font-family="Arial" font-size="14.00" fill="#666666">[INT64]</text>
<polygon fill="none" stroke="#000000" points="290,-165.5 290,-195.5 680,-195.5 680,-165.5 290,-165.5"/>
<text text-anchor="start" x="297" y="-176.9" font-family="Arial" font-size="14.00" fill="#000000">Name </text>
<text text-anchor="start" x="338.223" y="-176.9" font-family="Arial" font-size="14.00" fill="#666666">[STRING(32)]</text>
<polygon fill="none" stroke="#000000" points="290,-135.5 290,-165.5 680,-165.5 680,-135.5 290,-135.5"/>
<text text-anchor="start" x="297" y="-146.9" font-family="Arial" font-size="14.00" fill="#000000">Mail </text>
<text text-anchor="start" x="326.547" y="-146.9" font-family="Arial" font-size="14.00" fill="#666666">[STRING(64)]</text>
<polygon fill="none" stroke="#000000" points="290,-105.5 290,-135.5 680,-135.5 680,-105.5 290,-105.5"/>
<text text-anchor="start" x="297" y="-116.9" font-family="Arial" font-size="14.00" fill="#000000">Password </text>
<text text-anchor="start" x="362.3422" y="-116.9" font-family="Arial" font-size="14.00" fill="#666666">[STRING(64)]</text>
<polygon fill="none" stroke="#000000" points="290,-75.5 290,-105.5 680,-105.5 680,-75.5 290,-75.5"/>
<text text-anchor="start" x="297" y="-86.9" font-family="Arial" font-size="14.00" fill="#000000">CreatedAt </text>
<text text-anchor="start" x="363.906" y="-86.9" font-family="Arial" font-size="14.00" fill="#666666">[TIMESTAMP (allow_commit_timestamp=TRUE)]</text>
<polygon fill="none" stroke="#000000" points="290,-45.5 290,-75.5 680,-75.5 680,-45.5 290,-45.5"/>
<text text-anchor="start" x="296.9653" y="-56.9" font-family="Arial" font-size="14.00" fill="#000000">UpdatedAt </text>
<text text-anchor="start" x="366.9933" y="-56.9" font-family="Arial" font-size="14.00" fill="#666666">[TIMESTAMP (allow_commit_timestamp=TRUE)]</text>
<polygon fill="none" stroke="#000000" stroke-width="3" points="288.5,-44.5 288.5,-262.5 681.5,-262.5 681.5,-44.5 288.5,-44.5"/>
</g>
<!-- BattleHistory -->
<g id="node2" class="node">
<title>BattleHistory</title>
<polygon fill="#efefef" stroke="transparent" points="43,-640.5 43,-675.5 433,-675.5 433,-640.5 43,-640.5"/>
<polygon fill="none" stroke="#000000" points="43,-640.5 43,-675.5 433,-675.5 433,-640.5 43,-640.5"/>
<text text-anchor="start" x="136.0407" y="-653.3" font-family="Arial Bold" font-size="18.00" fill="#000000">BattleHistory</text>
<text text-anchor="start" x="238.0449" y="-653.3" font-family="Arial" font-size="14.00" fill="#000000"> </text>
<text text-anchor="start" x="241.9355" y="-653.3" font-family="Arial" font-size="14.00" fill="#666666">[BASIC TABLE]</text>
<polygon fill="none" stroke="#000000" points="43,-610.5 43,-640.5 433,-640.5 433,-610.5 43,-610.5"/>
<text text-anchor="start" x="50" y="-621.9" font-family="Arial" font-size="14.00" fill="#000000">BattleHistoryId </text>
<text text-anchor="start" x="144.9004" y="-621.9" font-family="Arial" font-size="14.00" fill="#666666">[INT64]</text>
<polygon fill="none" stroke="#000000" points="43,-580.5 43,-610.5 433,-610.5 433,-580.5 43,-580.5"/>
<text text-anchor="start" x="50" y="-591.9" font-family="Arial" font-size="14.00" fill="#000000">UserId </text>
<text text-anchor="start" x="95.1136" y="-591.9" font-family="Arial" font-size="14.00" fill="#666666">[INT64]</text>
<polygon fill="none" stroke="#000000" points="43,-550.5 43,-580.5 433,-580.5 433,-550.5 43,-550.5"/>
<text text-anchor="start" x="50" y="-561.9" font-family="Arial" font-size="14.00" fill="#000000">Id </text>
<text text-anchor="start" x="65.5638" y="-561.9" font-family="Arial" font-size="14.00" fill="#666666">[INT64]</text>
<polygon fill="none" stroke="#000000" points="43,-520.5 43,-550.5 433,-550.5 433,-520.5 43,-520.5"/>
<text text-anchor="start" x="50" y="-531.9" font-family="Arial" font-size="14.00" fill="#000000">OpponentId </text>
<text text-anchor="start" x="127.0406" y="-531.9" font-family="Arial" font-size="14.00" fill="#666666">[INT64]</text>
<polygon fill="none" stroke="#000000" points="43,-490.5 43,-520.5 433,-520.5 433,-490.5 43,-490.5"/>
<text text-anchor="start" x="50" y="-501.9" font-family="Arial" font-size="14.00" fill="#000000">Result </text>
<text text-anchor="start" x="93.5596" y="-501.9" font-family="Arial" font-size="14.00" fill="#666666">[BOOL]</text>
<polygon fill="none" stroke="#000000" points="43,-460.5 43,-490.5 433,-490.5 433,-460.5 43,-460.5"/>
<text text-anchor="start" x="50" y="-471.9" font-family="Arial" font-size="14.00" fill="#000000">EntryShardId </text>
<text text-anchor="start" x="135.5792" y="-471.9" font-family="Arial" font-size="14.00" fill="#666666">[INT64]</text>
<polygon fill="none" stroke="#000000" points="43,-430.5 43,-460.5 433,-460.5 433,-430.5 43,-430.5"/>
<text text-anchor="start" x="50" y="-441.9" font-family="Arial" font-size="14.00" fill="#000000">CreatedAt </text>
<text text-anchor="start" x="116.906" y="-441.9" font-family="Arial" font-size="14.00" fill="#666666">[TIMESTAMP (allow_commit_timestamp=TRUE)]</text>
<polygon fill="none" stroke="#000000" points="43,-400.5 43,-430.5 433,-430.5 433,-400.5 43,-400.5"/>
<text text-anchor="start" x="49.9653" y="-411.9" font-family="Arial" font-size="14.00" fill="#000000">UpdatedAt </text>
<text text-anchor="start" x="119.9933" y="-411.9" font-family="Arial" font-size="14.00" fill="#666666">[TIMESTAMP (allow_commit_timestamp=TRUE)]</text>
</g>
<!-- BattleHistory&#45;&gt;Users -->
<g id="edge1" class="edge">
<title>BattleHistory:UserId&#45;&gt;Users:UserId</title>
<path fill="none" stroke="#000000" d="M442.7916,-592.8856C482.6824,-569.6333 461.3332,-398.186 433,-358 394.118,-302.8522 328.882,-362.1478 290,-307 265.2862,-271.9474 247.1111,-210.5 290,-210.5"/>
<polygon fill="#000000" stroke="#000000" points="442.6615,-592.9202 431.8391,-591.1523 437.8308,-594.2101 433,-595.5 433,-595.5 433,-595.5 437.8308,-594.2101 434.1609,-599.8477 442.6615,-592.9202 442.6615,-592.9202"/>
<text text-anchor="start" x="440.106" y="-605.5" font-family="Arial" font-size="10.00" fill="#000000">INTERLEAVE IN PARENT Users ON DELETE CASCADE</text>
</g>
<!-- Characters -->
<g id="node3" class="node">
<title>Characters</title>
<polygon fill="#efefef" stroke="transparent" points="537,-655.5 537,-690.5 927,-690.5 927,-655.5 537,-655.5"/>
<polygon fill="none" stroke="#000000" points="537,-655.5 537,-690.5 927,-690.5 927,-655.5 537,-655.5"/>
<text text-anchor="start" x="637.04" y="-668.3" font-family="Arial Bold" font-size="18.00" fill="#000000">Characters</text>
<text text-anchor="start" x="725.0456" y="-668.3" font-family="Arial" font-size="14.00" fill="#000000"> </text>
<text text-anchor="start" x="728.9362" y="-668.3" font-family="Arial" font-size="14.00" fill="#666666">[BASIC TABLE]</text>
<polygon fill="none" stroke="#000000" points="537,-625.5 537,-655.5 927,-655.5 927,-625.5 537,-625.5"/>
<text text-anchor="start" x="544" y="-636.9" font-family="Arial" font-size="14.00" fill="#000000">Id </text>
<text text-anchor="start" x="559.5638" y="-636.9" font-family="Arial" font-size="14.00" fill="#666666">[INT64]</text>
<polygon fill="none" stroke="#000000" points="537,-595.5 537,-625.5 927,-625.5 927,-595.5 537,-595.5"/>
<text text-anchor="start" x="544" y="-606.9" font-family="Arial" font-size="14.00" fill="#000000">UserId </text>
<text text-anchor="start" x="589.1136" y="-606.9" font-family="Arial" font-size="14.00" fill="#666666">[INT64]</text>
<polygon fill="none" stroke="#000000" points="537,-565.5 537,-595.5 927,-595.5 927,-565.5 537,-565.5"/>
<text text-anchor="start" x="544" y="-576.9" font-family="Arial" font-size="14.00" fill="#000000">CharacterId </text>
<text text-anchor="start" x="621.0126" y="-576.9" font-family="Arial" font-size="14.00" fill="#666666">[INT64]</text>
<polygon fill="none" stroke="#000000" points="537,-535.5 537,-565.5 927,-565.5 927,-535.5 537,-535.5"/>
<text text-anchor="start" x="544" y="-546.9" font-family="Arial" font-size="14.00" fill="#000000">Name </text>
<text text-anchor="start" x="585.223" y="-546.9" font-family="Arial" font-size="14.00" fill="#666666">[STRING(16)]</text>
<polygon fill="none" stroke="#000000" points="537,-505.5 537,-535.5 927,-535.5 927,-505.5 537,-505.5"/>
<text text-anchor="start" x="544" y="-516.9" font-family="Arial" font-size="14.00" fill="#000000">Level </text>
<text text-anchor="start" x="581.345" y="-516.9" font-family="Arial" font-size="14.00" fill="#666666">[INT64]</text>
<polygon fill="none" stroke="#000000" points="537,-475.5 537,-505.5 927,-505.5 927,-475.5 537,-475.5"/>
<text text-anchor="start" x="544" y="-486.9" font-family="Arial" font-size="14.00" fill="#000000">Experience </text>
<text text-anchor="start" x="617.9074" y="-486.9" font-family="Arial" font-size="14.00" fill="#666666">[INT64]</text>
<polygon fill="none" stroke="#000000" points="537,-445.5 537,-475.5 927,-475.5 927,-445.5 537,-445.5"/>
<text text-anchor="start" x="544" y="-456.9" font-family="Arial" font-size="14.00" fill="#000000">Strength </text>
<text text-anchor="start" x="600.7994" y="-456.9" font-family="Arial" font-size="14.00" fill="#666666">[INT64]</text>
<polygon fill="none" stroke="#000000" points="537,-415.5 537,-445.5 927,-445.5 927,-415.5 537,-415.5"/>
<text text-anchor="start" x="544" y="-426.9" font-family="Arial" font-size="14.00" fill="#000000">CreatedAt </text>
<text text-anchor="start" x="610.906" y="-426.9" font-family="Arial" font-size="14.00" fill="#666666">[TIMESTAMP (allow_commit_timestamp=TRUE)]</text>
<polygon fill="none" stroke="#000000" points="537,-385.5 537,-415.5 927,-415.5 927,-385.5 537,-385.5"/>
<text text-anchor="start" x="543.9653" y="-396.9" font-family="Arial" font-size="14.00" fill="#000000">UpdatedAt </text>
<text text-anchor="start" x="613.9933" y="-396.9" font-family="Arial" font-size="14.00" fill="#666666">[TIMESTAMP (allow_commit_timestamp=TRUE)]</text>
</g>
<!-- Characters&#45;&gt;Users -->
<g id="edge2" class="edge">
<title>Characters:UserId&#45;&gt;Users:UserId</title>
<path fill="none" stroke="#000000" d="M527.0928,-608.1613C480.3786,-584.4217 502.6683,-387.0458 537,-343 577.2908,-291.309 639.7092,-358.691 680,-307 706.3665,-273.1731 722.8889,-210.5 680,-210.5"/>
<polygon fill="#000000" stroke="#000000" points="527.2675,-608.2024 535.9661,-614.8796 532.1338,-609.3512 537,-610.5 537,-610.5 537,-610.5 532.1338,-609.3512 538.0339,-606.1204 527.2675,-608.2024 527.2675,-608.2024"/>
<text text-anchor="start" x="544.106" y="-620.5" font-family="Arial" font-size="10.00" fill="#000000">INTERLEAVE IN PARENT Users ON DELETE CASCADE</text>
</g>
</g>
</svg>
